<?xml version="1.0" encoding="UTF-8" standalone="no"?>
<!-- Created with Inkscape (http://www.inkscape.org/) -->

<svg xmlns:svg="http://www.w3.org/2000/svg" 
   xmlns="http://www.w3.org/2000/svg" version="1.0" width="500" height="85" id="svg2">
   <defs id="defs4" />
   <g transform="translate(-15.233767,-25.187374)" id="layer1">
      <path d="m 25.22234,48.597434 c 0.669198,5.9e-5 1.14158,-0.136756 1.417144,-0.410442 0.275547,-0.273569 0.413326,-0.742645 0.413335,-1.40723 l 0,-11.433741 c -9e-6,-1.055349 0.393641,-1.934866 1.180955,-2.638554 0.787291,-0.703542 1.810784,-1.055348 3.070482,-1.055424 1.25967,7.6e-5 2.312686,0.361655 3.159053,1.084739 0.846334,0.723235 1.269508,1.592979 1.269527,2.609239 l 0,11.081933 c -1.9e-5,0.977303 0.09839,1.583193 0.295238,1.817672 0.196807,0.234597 0.669189,0.351866 1.417146,0.351808 l 12.104786,0 c 1.456477,5.8e-5 2.588223,0.342093 3.395243,1.026104 0.80695,0.684127 1.210443,1.651597 1.21048,2.902411 -3.7e-5,1.407284 -0.433053,2.44316 -1.299051,3.107634 -0.866068,0.664575 -2.165117,0.996837 -3.89715,0.996787 l -11.514308,0 c -0.629862,5e-5 -1.07272,0.244361 -1.328574,0.732932 -0.255892,0.48867 -0.383829,1.358415 -0.38381,2.609239 l 0,25.212864 c -1.9e-5,6.684356 0.590458,10.945131 1.771432,12.782337 1.180932,1.837223 3.306649,2.755828 6.377154,2.755828 2.637436,0 4.684423,-0.879515 6.140964,-2.63856 1.456478,-1.759026 2.184732,-4.260765 2.184767,-7.505224 -3.5e-5,-0.664508 -0.0394,-1.68084 -0.118095,-3.048998 -0.07877,-1.368119 -0.118129,-2.38445 -0.118096,-3.048997 -3.3e-5,-1.837192 0.34441,-3.234649 1.033336,-4.192372 0.688853,-0.957671 1.702506,-1.43652 3.040958,-1.436548 1.810757,2.8e-5 3.090123,0.596147 3.838102,1.788355 0.747895,1.192261 1.121863,3.312876 1.121908,6.361851 -4.5e-5,7.075251 -1.535283,12.489171 -4.605723,16.241773 -3.070519,3.75261 -7.53846,5.62891 -13.403836,5.62893 -5.826063,-2e-5 -9.998766,-1.47565 -12.51812,-4.42692 -2.519381,-2.95127 -3.779063,-7.925427 -3.779055,-14.922497 l 0,-29.551822 c -8e-6,-1.485361 -0.127945,-2.413741 -0.38381,-2.785143 -0.255883,-0.371302 -0.69874,-0.556978 -1.328574,-0.557028 l -4.605723,0 c -1.417147,5e-5 -2.450482,-0.32244 -3.100006,-0.967471 -0.649525,-0.644928 -0.974287,-1.651487 -0.974288,-3.01968 1e-6,-1.407174 0.344446,-2.433278 1.033336,-3.078315 0.68889,-0.644922 1.781271,-0.967412 3.277149,-0.96747 l 4.605724,0 z" id="path2425" style="font-size:115.59156036px;font-style:normal;font-variant:normal;font-weight:normal;font-stretch:normal;text-align:start;line-height:125%;writing-mode:lr-tb;text-anchor:start;fill:#ffffff;fill-opacity:1;stroke:none;font-family:AmerType Md BT;-inkscape-font-specification:AmerType Md BT" />
      <path d="m 74.781443,46.076147 c -1.5e-5,-5.941569 -0.446049,-9.508502 -1.338104,-10.700809 -0.89208,-1.192164 -2.704686,-1.788281 -5.437823,-1.788354 l -3.587255,0 c -1.518416,7.3e-5 -2.600286,-0.254008 -3.245611,-0.76225 -0.645326,-0.508091 -0.96799,-1.348518 -0.96799,-2.521285 0,-1.211705 0.389095,-2.149856 1.167282,-2.814459 0.778186,-0.664445 1.907505,-0.996707 3.387962,-0.996789 0.07592,8.2e-5 0.749713,0.05872 2.021391,0.175905 1.271664,0.117348 2.533846,0.175984 3.786546,0.175902 2.733135,8.2e-5 5.466278,-0.09764 8.199441,-0.293171 0.493465,-0.03901 0.797148,-0.05855 0.911048,-0.05864 1.442474,8.1e-5 2.419953,0.303025 2.932439,0.908836 0.512442,0.605968 0.768674,2.06206 0.768697,4.368275 l 0,25.212864 c 2.505359,-3.283483 5.285953,-5.687497 8.341792,-7.212052 3.055775,-1.52444 6.576595,-2.286689 10.562472,-2.286748 7.89571,5.9e-5 13.59924,2.003406 17.11063,6.010043 3.51128,4.006745 5.26694,10.485859 5.267,19.43736 l 0,18.997601 c -6e-5,3.674444 0.35108,5.970963 1.05341,6.889561 0.7022,0.918616 2.19214,1.377923 4.46983,1.377913 0.45545,1e-5 1.01538,-0.0586 1.67975,-0.1759 0.66422,-0.117265 1.11026,-0.1759 1.3381,-0.175907 1.59425,7e-6 2.80899,0.342047 3.64419,1.026107 0.83506,0.68407 1.25263,1.71018 1.2527,3.07831 -7e-5,1.28996 -0.35121,2.20858 -1.05341,2.75583 -0.70234,0.54725 -1.86961,0.82089 -3.50184,0.82089 -0.41764,0 -2.01196,-0.15636 -4.78301,-0.46908 -2.77117,-0.31272 -5.33349,-0.46908 -7.68697,-0.46908 -2.80913,0 -5.73207,0.15636 -8.76885,0.46908 -3.03687,0.31272 -4.66916,0.46908 -4.89689,0.46908 -1.32865,0 -2.35358,-0.3225 -3.07478,-0.96748 -0.72128,-0.64497 -1.08192,-1.55381 -1.08187,-2.72651 -5e-5,-1.36813 0.37006,-2.37469 1.11034,-3.01968 0.74018,-0.64497 1.8695,-0.967459 3.38796,-0.967466 0.68325,7e-6 1.4804,0.05864 2.39151,0.175906 0.911,0.11727 1.48039,0.17591 1.70822,0.1759 1.59428,1e-5 2.65717,-0.449524 3.18866,-1.348594 0.53139,-0.899054 0.79711,-3.205345 0.79717,-6.918879 l 0,-17.06266 c -6e-5,-7.231558 -1.15785,-12.381622 -3.47337,-15.45021 -2.31564,-3.068491 -6.13065,-4.602761 -11.44505,-4.602813 -6.073697,5.2e-5 -10.515055,2.149984 -13.324092,6.449803 -2.809093,4.299909 -4.213625,11.121058 -4.213602,20.463465 l 0,10.202415 c -2.3e-5,3.713534 0.265699,6.019825 0.797168,6.918879 0.531421,0.89907 1.59431,1.348604 3.188671,1.348594 0.227735,1e-5 0.80663,-0.0586 1.736687,-0.1759 0.929999,-0.117265 1.717676,-0.175899 2.363033,-0.175906 1.518386,7e-6 2.638216,0.322496 3.359488,0.967466 0.72122,0.64499 1.08184,1.65155 1.08187,3.01968 -3e-5,1.21179 -0.35117,2.1304 -1.0534,2.75583 -0.702295,0.62544 -1.71773,0.93816 -3.046315,0.93816 -0.227792,0 -1.860087,-0.15636 -4.896887,-0.46908 -3.036853,-0.31272 -5.959799,-0.46908 -8.768847,-0.46908 -2.315596,0 -4.868429,0.15636 -7.658504,0.46908 -2.790093,0.31272 -4.393918,0.46908 -4.811477,0.46908 -1.632299,0 -2.799579,-0.27363 -3.501844,-0.82089 -0.702268,-0.54725 -1.0534,-1.46586 -1.0534,-2.75583 0,-1.36813 0.398584,-2.39424 1.195752,-3.07831 0.797164,-0.68406 1.992916,-1.0261 3.587254,-1.026107 0.417559,7e-6 0.996454,0.05864 1.736689,0.175907 0.740218,0.11727 1.262172,0.17591 1.565864,0.1759 2.239651,1e-5 3.729593,-0.410433 4.469834,-1.231325 0.740213,-0.820875 1.110326,-3.166256 1.110341,-7.036148 l 0,-45.852234 z" id="path2423" style="font-size:115.59156036px;font-style:normal;font-variant:normal;font-weight:normal;font-stretch:normal;text-align:start;line-height:125%;writing-mode:lr-tb;text-anchor:start;fill:#ffffff;fill-opacity:1;stroke:none;font-family:AmerType Md BT;-inkscape-font-specification:AmerType Md BT" />
      <path d="m 163.72346,46.663801 c -8.06744,6e-5 -14.46922,2.796936 -19.20689,8.40625 -4.73772,5.60942 -7.0918,13.15749 -7.09177,22.656251 -1e-5,9.537909 2.35404,17.109383 7.09177,22.718748 4.73768,5.60937 11.13945,8.43748 19.20689,8.4375 4.52837,-2e-5 8.43464,-0.7646 11.68829,-2.25 3.25354,-1.48541 6.04568,-3.77907 8.40506,-6.906248 1.52209,-2.071747 2.73104,-4.158692 3.64438,-6.25 0.91324,-2.091284 1.37892,-3.842754 1.37896,-5.25 -5e-5,-1.211761 -0.38813,-2.198638 -1.14914,-3 -0.76114,-0.801318 -1.71484,-1.21873 -2.85641,-1.21875 -1.78857,2.2e-5 -3.25274,1.607169 -4.43235,4.8125 -0.76112,2.14995 -1.48201,3.757093 -2.16694,4.8125 -1.78857,2.619021 -3.78741,4.514819 -5.97546,5.6875 -2.18813,1.172698 -4.88026,1.750008 -8.07675,1.749998 -5.25145,1e-5 -9.46295,-1.981591 -12.64043,-5.968748 -3.1775,-3.987134 -4.76069,-9.300067 -4.76068,-15.90625 l 0,-0.34375 34.93355,0 2.00277,0 c 2.20706,2.8e-5 3.67121,-0.374428 4.43235,-1.15625 0.76102,-0.781766 1.14907,-2.349924 1.14914,-4.65625 -7e-5,-8.01335 -2.31793,-14.398963 -6.96045,-19.187501 -4.64261,-4.788432 -10.85295,-7.18744 -18.61589,-7.1875 z m 0.13132,7.6875 c 4.68058,5.3e-5 8.4488,1.466734 11.35996,4.4375 2.91108,2.970863 4.36665,6.856101 4.3667,11.625001 l 0,0.75 -32.24129,0 c 0.49468,-5.198891 2.23831,-9.302549 5.1875,-12.312501 2.94915,-3.009856 6.72259,-4.499948 11.32713,-4.5 z" id="path2421" style="font-size:115.59156036px;font-style:normal;font-variant:normal;font-weight:normal;font-stretch:normal;text-align:start;line-height:125%;writing-mode:lr-tb;text-anchor:start;fill:#ffffff;fill-opacity:1;stroke:none;font-family:AmerType Md BT;-inkscape-font-specification:AmerType Md BT" />
      <path d="m 254.96172,46.788801 c -8.31131,6.1e-5 -14.89983,2.773524 -19.76582,8.34375 -4.86601,5.57033 -7.29342,13.09499 -7.29343,22.593751 0,9.498819 2.42742,17.089842 7.29343,22.718748 4.86599,5.62892 11.43362,8.43748 19.67388,8.4375 8.48884,-2e-5 15.16266,-2.79301 20.01097,-8.34375 4.8482,-5.550725 7.26274,-13.157318 7.26279,-22.812498 -5e-5,-9.576942 -2.4146,-17.125007 -7.26279,-22.656251 -4.8483,-5.531136 -11.50124,-8.281187 -19.91903,-8.28125 z m 0.12258,7.6875 c 5.75393,5.2e-5 10.27721,2.05188 13.54494,6.15625 3.26764,4.104463 4.90309,9.784013 4.90315,17.093751 -5e-5,7.231618 -1.64841,12.907304 -4.93379,17.03125 -3.28549,4.123973 -7.79587,6.187508 -13.5143,6.187498 -5.93159,1e-5 -10.51443,-2.005001 -13.72882,-6.031248 -3.21442,-4.026224 -4.81122,-9.760431 -4.81121,-17.1875 -1e-5,-7.27065 1.64834,-12.969742 4.93379,-17.093751 3.28542,-4.123913 7.81675,-6.156197 13.60624,-6.15625 z" id="path2417" style="font-size:115.59156036px;font-style:normal;font-variant:normal;font-weight:normal;font-stretch:normal;text-align:start;line-height:125%;writing-mode:lr-tb;text-anchor:start;fill:#ffffff;fill-opacity:1;stroke:none;font-family:AmerType Md BT;-inkscape-font-specification:AmerType Md BT" />
      <path d="m 299.37594,56.04936 c -2.06407,0.03914 -4.21411,0.107547 -6.45015,0.205221 -2.23607,0.09777 -3.44965,0.146637 -3.64075,0.146586 -1.29959,5.1e-5 -2.25516,-0.273577 -2.86673,-0.820884 -0.61157,-0.547204 -0.91736,-1.407176 -0.91736,-2.57992 0,-1.172636 0.4109,-2.101017 1.23269,-2.785143 0.82179,-0.684012 1.93983,-1.026046 3.35408,-1.026105 0.15289,5.9e-5 1.08936,0.05869 2.8094,0.175905 1.72003,0.117327 3.36362,0.175961 4.93078,0.175902 l 1.54804,0 c -1e-5,-0.27357 -0.0191,-0.674239 -0.0573,-1.202007 -0.0382,-0.527651 -0.0574,-0.928323 -0.0573,-1.202009 -2e-5,-6.606095 1.64357,-11.619345 4.93078,-15.039767 3.28717,-3.420271 8.10326,-5.130445 14.44834,-5.130525 4.39562,8e-5 7.9217,0.987094 10.57825,2.961046 2.65646,1.974106 3.98471,4.583342 3.98475,7.827715 -4e-5,1.759105 -0.47783,3.166333 -1.43337,4.221689 -0.95561,1.055486 -2.23609,1.583197 -3.84142,1.583133 -1.68186,6.4e-5 -3.01011,-0.390833 -3.98476,-1.172691 -0.97472,-0.781729 -1.46207,-1.83715 -1.46203,-3.166267 -4e-5,-0.469008 0.086,-1.12376 0.25801,-1.964258 0.17197,-0.840357 0.25796,-1.436476 0.258,-1.788355 -4e-5,-0.547183 -0.36316,-0.957624 -1.08936,-1.231326 -0.72627,-0.273554 -1.85385,-0.410368 -3.38274,-0.410441 -3.47833,7.3e-5 -6.11572,1.075039 -7.91218,3.224901 -1.79652,2.150003 -2.69476,5.316266 -2.69473,9.498801 -3e-5,0.781854 0.01,1.377971 0.0287,1.788354 0.0191,0.410501 0.0669,0.81117 0.14333,1.202008 2.56094,5.8e-5 5.23654,-0.09766 8.02687,-0.293172 0.64975,-0.03903 1.05109,-0.05858 1.20402,-0.05863 1.56712,5.8e-5 2.7807,0.322547 3.64075,0.96747 0.85998,0.645037 1.29,1.553872 1.29004,2.726507 -4e-5,1.172745 -0.3345,2.052263 -1.00337,2.638557 -0.66893,0.586396 -1.69141,0.879569 -3.0674,0.879518 -0.15292,5e-5 -0.55427,-0.01949 -1.20402,-0.05863 -2.98144,-0.195397 -5.86728,-0.293121 -8.65754,-0.293173 l 0,36.236165 c -3e-5,3.674444 0.28665,5.970963 0.86002,6.889561 0.57332,0.918614 1.75823,1.377914 3.55475,1.377914 0.15287,0 0.74531,-0.0586 1.77737,-0.17591 1.032,-0.11726 1.96847,-0.17589 2.8094,-0.1759 1.72,1e-5 2.97181,0.3225 3.75542,0.96747 0.78354,0.64499 1.17533,1.65155 1.17537,3.01968 -4e-5,1.21178 -0.38228,2.13039 -1.1467,2.75582 -0.7645,0.62544 -1.87297,0.93816 -3.32541,0.93816 -0.2676,0 -2.04498,-0.15636 -5.33213,-0.46908 -3.28721,-0.31272 -6.44061,-0.46908 -9.46022,-0.46908 -2.56096,0 -5.25568,0.15636 -8.08418,0.46908 -2.82852,0.31272 -4.39567,0.46908 -4.70145,0.46908 -1.6436,0 -2.83806,-0.28341 -3.58342,-0.85021 -0.74535,-0.5668 -1.11802,-1.47563 -1.11802,-2.7265 0,-1.36814 0.42044,-2.39424 1.26137,-3.07831 0.8409,-0.68407 2.06404,-1.0261 3.6694,-1.02611 0.42046,1e-5 1.00337,0.0586 1.74872,0.1759 0.74534,0.11728 1.27091,0.17591 1.5767,0.17591 2.25515,0 3.75541,-0.41044 4.50078,-1.231327 0.74533,-0.820875 1.11801,-3.166256 1.11802,-7.036148 l 0,-36.236164 z" id="path2413" style="font-size:115.59156036px;font-style:normal;font-variant:normal;font-weight:normal;font-stretch:normal;text-align:start;line-height:125%;writing-mode:lr-tb;text-anchor:start;fill:#ffffff;fill-opacity:1;stroke:none;font-family:AmerType Md BT;-inkscape-font-specification:AmerType Md BT" />
      <path d="m 341.651,56.04936 c -2.0486,0.03914 -4.18256,0.107547 -6.40184,0.205221 -2.21932,0.09777 -3.42382,0.146637 -3.61351,0.146586 -1.28986,5.1e-5 -2.23828,-0.273577 -2.84527,-0.820884 -0.60699,-0.547204 -0.91049,-1.407176 -0.91049,-2.57992 0,-1.172636 0.40783,-2.101017 1.22348,-2.785143 0.81564,-0.684012 1.92529,-1.026046 3.32896,-1.026105 0.15174,5.9e-5 1.0812,0.05869 2.78837,0.175905 1.70714,0.117327 3.33843,0.175961 4.89386,0.175902 l 1.53644,0 c -1e-5,-0.27357 -0.019,-0.674239 -0.0569,-1.202007 -0.0379,-0.527651 -0.0569,-0.928323 -0.0569,-1.202009 -10e-6,-6.606095 1.63128,-11.619345 4.89387,-15.039767 3.26256,-3.420271 8.04261,-5.130445 14.34015,-5.130525 4.36272,8e-5 7.8624,0.987094 10.49906,2.961046 2.63658,1.974106 3.95488,4.583342 3.95494,7.827715 -6e-5,1.759105 -0.47427,3.166333 -1.42264,4.221689 -0.94848,1.055486 -2.21936,1.583197 -3.81267,1.583133 -1.66926,6.4e-5 -2.98757,-0.390833 -3.95492,-1.172691 -0.96743,-0.781729 -1.45112,-1.83715 -1.45109,-3.166267 -3e-5,-0.469008 0.0853,-1.12376 0.25607,-1.964258 0.17067,-0.840357 0.25604,-1.436476 0.25607,-1.788355 -3e-5,-0.547183 -0.36043,-0.957624 -1.08119,-1.231326 -0.72085,-0.273554 -1.83998,-0.410368 -3.35742,-0.410441 -3.4523,7.3e-5 -6.06994,1.075039 -7.85295,3.224901 -1.78306,2.150003 -2.67458,5.316266 -2.67456,9.498801 -2e-5,0.781854 0.009,1.377971 0.0285,1.788354 0.0189,0.410501 0.0664,0.81117 0.14226,1.202008 2.54174,5.8e-5 5.19734,-0.09766 7.96676,-0.293172 0.6449,-0.03903 1.04323,-0.05858 1.19501,-0.05863 1.55538,5.8e-5 2.75988,0.322547 3.61349,0.96747 0.85355,0.645037 1.28034,1.553872 1.28038,2.726507 -4e-5,1.172745 -0.33199,2.052263 -0.99584,2.638557 -0.66394,0.586396 -1.67875,0.879569 -3.04445,0.879518 -0.15178,5e-5 -0.55012,-0.01949 -1.19501,-0.05863 -2.95912,-0.195397 -5.82335,-0.293121 -8.59272,-0.293173 l 0,36.236165 c -2e-5,3.674444 0.2845,5.970963 0.85358,6.889561 0.56902,0.918614 1.74507,1.377914 3.52814,1.377914 0.15171,0 0.73975,-0.0586 1.76407,-0.17591 1.02426,-0.11726 1.95371,-0.17589 2.78836,-0.1759 1.70713,1e-5 2.94957,0.3225 3.7273,0.96747 0.77767,0.64499 1.16653,1.65154 1.16657,3.01968 -4e-5,1.21178 -0.3794,2.13039 -1.13811,2.75582 -0.75878,0.62544 -1.85895,0.93816 -3.30052,0.93816 -0.26558,0 -2.02965,-0.15636 -5.2922,-0.46908 -3.2626,-0.31272 -6.3924,-0.46908 -9.38938,-0.46908 -2.54181,0 -5.21635,0.15636 -8.02368,0.46908 -2.80734,0.31272 -4.36275,0.46908 -4.66624,0.46908 -1.63128,0 -2.81683,-0.28341 -3.55659,-0.85021 -0.73977,-0.5668 -1.10966,-1.47563 -1.10966,-2.7265 0,-1.36814 0.41732,-2.39424 1.25192,-3.07831 0.83462,-0.68407 2.0486,-1.0261 3.64196,-1.02611 0.4173,1e-5 0.99583,0.0586 1.7356,0.1759 0.73978,0.11728 1.26141,0.17591 1.56491,0.17591 2.23827,0 3.72729,-0.41044 4.46707,-1.231327 0.73976,-0.820875 1.10964,-3.166256 1.10965,-7.036148 l 0,-36.236164 z" id="path2411" style="font-size:115.59156036px;font-style:normal;font-variant:normal;font-weight:normal;font-stretch:normal;text-align:start;line-height:125%;writing-mode:lr-tb;text-anchor:start;fill:#ffffff;fill-opacity:1;stroke:none;font-family:AmerType Md BT;-inkscape-font-specification:AmerType Md BT" />
      <path d="m 384.71058,92.285525 0,-23.922905 c -10e-6,-5.511606 -0.36221,-8.941725 -1.08659,-10.290368 -0.72441,-1.348544 -2.20943,-2.022841 -4.45505,-2.022892 l -4.02041,0 c -1.34014,5.1e-5 -2.26375,-0.254032 -2.77082,-0.76225 -0.50708,-0.508113 -0.76062,-1.387631 -0.76062,-2.638555 0,-1.055367 0.37126,-1.954429 1.11376,-2.69719 0.74251,-0.742647 1.65706,-1.113999 2.74366,-1.114058 0.21732,5.9e-5 1.04131,0.05869 2.47201,0.175905 1.43068,0.117326 2.76176,0.175961 3.99324,0.175903 2.06452,5.8e-5 4.21961,-0.09767 6.46526,-0.293173 0.54328,-0.03903 0.86925,-0.05858 0.97794,-0.05863 1.52121,5.9e-5 2.53537,0.293231 3.04247,0.879519 0.50705,0.586403 0.7606,1.934997 0.76062,4.045785 l 0,38.522913 c -2e-5,3.596265 0.33501,5.892783 1.0051,6.889561 0.67004,0.9968 2.07357,1.49519 4.21056,1.49518 0.47083,1e-5 1.01413,-0.0586 1.6299,-0.1759 0.6157,-0.11726 1.05034,-0.1759 1.30392,-0.17591 1.55742,1e-5 2.72551,0.33227 3.50428,0.99679 0.77869,0.66453 1.16804,1.66132 1.16808,2.99036 -4e-5,1.28996 -0.33507,2.20857 -1.0051,2.75582 -0.6701,0.54726 -1.78386,0.8209 -3.34128,0.8209 -0.43468,0 -1.95591,-0.15637 -4.56371,-0.46909 -2.60786,-0.31272 -4.98026,-0.46908 -7.11721,-0.46908 -4.02044,0 -8.09517,0.25409 -12.22423,0.76225 -0.9055,0.11727 -1.46691,0.17591 -1.68422,0.17591 -1.59368,0 -2.7346,-0.28341 -3.42278,-0.85021 -0.68818,-0.5668 -1.03227,-1.47563 -1.03227,-2.7265 0,-1.32904 0.38936,-2.32583 1.16809,-2.99036 0.77873,-0.66452 1.94682,-0.99678 3.50428,-0.99679 0.3622,1e-5 0.88738,0.0586 1.57556,0.17591 0.68818,0.11728 1.19525,0.17591 1.52124,0.1759 2.2094,1e-5 3.64914,-0.47884 4.31922,-1.436545 0.67005,-0.957689 1.00509,-3.273752 1.0051,-6.948196 l 0,0 z" id="path2409" style="font-size:115.59156036px;font-style:normal;font-variant:normal;font-weight:normal;font-stretch:normal;text-align:start;line-height:125%;writing-mode:lr-tb;text-anchor:start;fill:#ffffff;fill-opacity:1;stroke:none;font-family:AmerType Md BT;-inkscape-font-specification:AmerType Md BT" />
      <path d="m 380.68219,36.572011 c -10e-6,-1.837144 0.61462,-3.381186 1.84388,-4.632131 1.22924,-1.250794 2.74661,-1.876229 4.5521,-1.876306 1.72863,7.7e-5 3.17876,0.625512 4.35042,1.876306 1.17162,1.250945 1.75744,2.794987 1.75747,4.632131 -3e-5,1.759106 -0.59546,3.264058 -1.78628,4.514862 -1.19086,1.250936 -2.63139,1.876371 -4.32161,1.876306 -1.80549,6.5e-5 -3.32286,-0.615598 -4.5521,-1.846988 -1.22926,-1.23126 -1.84389,-2.745985 -1.84388,-4.54418 l 0,0 z" id="path2407" style="font-size:115.59156036px;font-style:normal;font-variant:normal;font-weight:normal;font-stretch:normal;text-align:start;line-height:125%;writing-mode:lr-tb;text-anchor:start;fill:#ffffff;fill-opacity:1;stroke:none;font-family:AmerType Md BT;-inkscape-font-specification:AmerType Md BT" />
      <path d="m 404.7175,77.738815 c 0,-9.694209 2.40243,-17.316697 7.20734,-22.867482 4.80488,-5.550682 11.39283,-8.326049 19.76389,-8.326109 6.75686,6e-5 12.20928,1.632054 16.35731,4.895986 4.14793,3.264044 6.22191,7.515046 6.22197,12.753021 -6e-5,3.049037 -0.83528,5.472595 -2.50568,7.270685 -1.67051,1.79816 -3.93219,2.697223 -6.78505,2.697191 -1.95203,3.3e-5 -3.46295,-0.459271 -4.53274,-1.377912 -1.06988,-0.918573 -1.60481,-2.218305 -1.60477,-3.899199 -4e-5,-1.133563 0.28151,-2.16944 0.84461,-3.107632 0.56304,-0.938112 1.35134,-1.70036 2.36491,-2.286749 0.18766,-0.117225 0.46919,-0.234495 0.84461,-0.351807 0.82581,-0.351764 1.23873,-0.879474 1.23877,-1.583133 -4e-5,-1.87626 -1.14496,-3.566888 -3.43475,-5.07189 -2.28987,-1.504902 -5.03016,-2.257379 -8.22088,-2.257432 -5.93107,5.3e-5 -10.53889,2.140213 -13.82346,6.420485 -3.28462,4.280367 -4.92692,10.309949 -4.92691,18.088766 -1e-5,6.801631 1.58598,12.264413 4.75798,16.388362 3.17196,4.123973 7.34809,6.185954 12.5284,6.185944 3.49102,1e-5 6.38146,-0.75247 8.67133,-2.257428 2.28979,-1.504944 4.16671,-3.899187 5.63075,-7.182735 0.33779,-0.742689 0.76948,-1.915379 1.29507,-3.518074 1.27624,-3.713501 2.87162,-5.570261 4.78612,-5.570284 1.20118,2.3e-5 2.19593,0.400694 2.98429,1.202009 0.78826,0.801361 1.18241,1.80792 1.18247,3.01968 -6e-5,1.798145 -0.4599,3.918759 -1.37954,6.36185 -0.91974,2.443118 -2.11158,4.641913 -3.57552,6.596389 -2.25234,2.931733 -5.04894,5.150073 -8.38981,6.655023 -3.34094,1.50496 -7.1886,2.25742 -11.54301,2.25744 -7.99567,-2e-5 -14.32085,-2.79492 -18.97559,-8.38475 -4.65475,-5.589818 -6.98211,-13.173214 -6.98211,-22.750214 l 0,0 z" id="path2405" style="font-size:115.59156036px;font-style:normal;font-variant:normal;font-weight:normal;font-stretch:normal;text-align:start;line-height:125%;writing-mode:lr-tb;text-anchor:start;fill:#ffffff;fill-opacity:1;stroke:none;font-family:AmerType Md BT;-inkscape-font-specification:AmerType Md BT" />
      <path d="m 488.0568,47.020944 c -8.23406,6e-5 -14.76803,2.780881 -19.60358,8.357997 -4.83556,5.577221 -7.23825,13.081964 -7.23825,22.5262 -10e-6,9.483161 2.4027,17.011174 7.23825,22.588339 4.83554,5.57717 11.36952,8.38905 19.60358,8.38907 4.62189,-2e-5 8.60887,-0.76021 11.9297,-2.23708 3.32076,-1.47689 6.17055,-3.75738 8.57866,-6.866611 1.55354,-2.059854 2.78744,-4.13482 3.71966,-6.214124 0.93212,-2.07928 1.40739,-3.820696 1.40744,-5.219865 -6e-5,-1.204805 -0.3961,-2.186016 -1.17286,-2.982779 -0.77686,-0.796719 -1.75031,-1.211735 -2.91541,-1.211755 -1.82553,2.2e-5 -3.31992,1.597944 -4.5239,4.784876 -0.77685,2.137609 -1.51261,3.735527 -2.21169,4.784876 -1.82551,2.603987 -3.86565,4.488903 -6.09889,5.654853 -2.23333,1.165969 -4.98106,1.739959 -8.24356,1.739959 -5.35993,0 -9.65841,-1.970222 -12.9015,-5.934493 -3.24314,-3.964247 -4.85901,-9.246684 -4.85901,-15.814946 l 0,-0.341777 35.65506,0 2.04414,0 c 2.25266,2.8e-5 3.74702,-0.372279 4.5239,-1.149613 0.77674,-0.777278 1.17283,-2.336435 1.17286,-4.629523 -5e-5,-7.967351 -2.3658,-14.31631 -7.1042,-19.077361 -4.7385,-4.760946 -11.07712,-7.146183 -19.0004,-7.146243 z m 0.13405,7.643374 c 4.77725,5.1e-5 8.62332,1.458314 11.59459,4.412028 2.9712,2.953809 4.45683,6.816744 4.45688,11.558271 l 0,0.745695 -32.90721,0 c 0.5049,-5.169049 2.28456,-9.249151 5.29465,-12.241826 3.01007,-2.992579 6.86143,-4.474117 11.56109,-4.474168 z" id="path2403" style="font-size:115.59156036px;font-style:normal;font-variant:normal;font-weight:normal;font-stretch:normal;text-align:start;line-height:125%;writing-mode:lr-tb;text-anchor:start;fill:#ffffff;fill-opacity:1;stroke:none;font-family:AmerType Md BT;-inkscape-font-specification:AmerType Md BT" />
   </g>
</svg>
